<?xml version="1.0" encoding="UTF-8"?>
<svg width="1e3" height="1e3" version="1.1" xmlns="http://www.w3.org/2000/svg"><path d="m788.8 78.72c-13.85-44.4 40.11-49.35 54.55-42.36 6.582-56.71 51.06-39.36 79.96-0.5185 6.255 8.601-4.705 15.07-10.88 11.79-13.04-7.483-18.91-19.57-34.41-16.72-10.99 2.022-11.95 16.23-9.31 25.9 3.395 15.24-15.2 16.55-20.91 9.375-11.26-14.14-29.87-4.922-31.91 11.42-2.382 19.1-21.15 14.56-27.08 1.118zm-447.9 470.5c4.62-58.36 67.13-28.02 88.51-53.97 15.77-19.15 26.35-80.53 55.98-89.95 27.26-8.667 49.15 33.57 39.48 41.12-13.78-2.053-12.91-25.39-31.22-19.46-19.22 6.225-32.85 46.56-38.93 77.03-7.969 39.94-60.03 16.2-88.29 31.57-10.56 5.742-26.29 23.31-25.53 13.67zm-230.9 447.9c-6.492-17.76 89.53-130.3 89.53-130.3-358.2-332.4-41.17-480.2 188.1-473.6-28.35-235.2 197.3-349.4 364.8-242 1.751 5.569-8.19 31.71-14.17 28.36-234-91.49-348.6 71.74-309.5 249.3-249-11.06-548.5 104.3-215.7 416.1 234.3-241.7 461.5-530.1 678.8-748.4 16.19-13.45 48.75-46.53 68.67-42.41 7.132 2.103-15.69 43.75-30.88 56.74-157.9 135.5-702.2 787.9-810.8 885.7-3.431 3.741-7.218 4.877-8.804 0.5382z"/></svg>
